<?xml version="1.0" encoding="UTF-8" ?>
<!DOCTYPE svg PUBLIC "-//W3C//DTD SVG 1.1//EN" "http://www.w3.org/Graphics/SVG/1.1/DTD/svg11.dtd">
<svg width="76pt" height="6pt" viewBox="0 0 76 6" version="1.1" xmlns="http://www.w3.org/2000/svg">
<g id="#8373cdfe">
<path fill="#8373cd" opacity="1.00" d=" M 35.42 1.30 C 37.60 -0.83 40.86 2.48 38.74 4.72 C 36.53 6.83 33.90 3.53 35.42 1.30 Z" />
</g>
<g id="#f8b54dff">
<path fill="#f8b54d" opacity="1.00" d=" M 43.73 3.05 C 46.17 0.57 49.84 1.36 52.95 1.23 C 60.64 1.64 68.38 1.15 76.00 2.46 L 76.00 3.76 C 68.99 3.94 62.00 2.96 55.00 3.47 C 51.24 3.47 47.32 4.64 43.73 3.05 Z" />
<path fill="#f8b54d" opacity="1.00" d=" M 0.00 2.83 C 7.91 1.53 15.97 1.81 23.96 1.73 C 26.80 1.75 29.85 1.37 32.34 3.08 C 29.47 4.93 26.04 4.07 22.88 3.95 C 15.26 3.36 7.62 4.08 0.00 4.22 L 0.00 2.83 Z" />
</g>
</svg>
